HIERARCHY
ROOT Hips
{
	OFFSET 0.000000 0.000000 0.000000
	CHANNELS 6 Xposition Yposition Zposition Zrotation Yrotation Xrotation 
	JOINT LowerBack
	{
		OFFSET 0.000000 0.000000 0.000000
		CHANNELS 3 Zrotation Yrotation Xrotation
		JOINT Spine
		{
			OFFSET 0.028270 2.035590 -0.193380
			CHANNELS 3 Zrotation Yrotation Xrotation
			JOINT Spine1
			{
				OFFSET 0.056720 2.048850 -0.042750
				CHANNELS 3 Zrotation Yrotation Xrotation
				JOINT Neck
				{
					OFFSET 0.000000 0.000000 0.000000
					CHANNELS 3 Zrotation Yrotation Xrotation
					JOINT Neck1
					{
						OFFSET -0.054170 1.746240 0.172020
						CHANNELS 3 Zrotation Yrotation Xrotation
						JOINT Head
						{
							OFFSET 0.104070 1.761360 -0.123970
							CHANNELS 3 Zrotation Yrotation Xrotation
							End Site
							{
								OFFSET 0.000000 0.000000 0.000000
							}
						}
					}
				}
				JOINT LeftShoulder
				{
					OFFSET 0.000000 0.000000 0.000000
					CHANNELS 3 Zrotation Yrotation Xrotation
					JOINT LeftArm
					{
						OFFSET 3.362410 1.200890 -0.311210
						CHANNELS 3 Zrotation Yrotation Xrotation
						JOINT LeftForeArm
						{
							OFFSET 4.983000 -0.000000 -0.000000
							CHANNELS 3 Zrotation Yrotation Xrotation
							JOINT LeftHand
							{
								OFFSET 3.483560 -0.000000 -0.000000
								CHANNELS 3 Zrotation Yrotation Xrotation
								JOINT LeftFingerBase
								{
									OFFSET 0.000000 0.000000 0.000000
									CHANNELS 3 Zrotation Yrotation Xrotation
									JOINT LeftHandIndex1
									{
										OFFSET 0.715260 -0.000000 -0.000000
										CHANNELS 3 Zrotation Yrotation Xrotation
										End Site
										{
											OFFSET 0.000000 0.000000 0.000000
										}
									}
								}
								JOINT LThumb
								{
									OFFSET 0.000000 0.000000 0.000000
									CHANNELS 3 Zrotation Yrotation Xrotation
									End Site
									{
										OFFSET 0.000000 0.000000 0.000000
									}
								}
							}
						}
					}
				}
				JOINT RightShoulder
				{
					OFFSET 0.000000 0.000000 0.000000
					CHANNELS 3 Zrotation Yrotation Xrotation
					JOINT RightArm
					{
						OFFSET -3.136600 1.374050 -0.404650
						CHANNELS 3 Zrotation Yrotation Xrotation
						JOINT RightForeArm
						{
							OFFSET -5.241900 -0.000000 -0.000000
							CHANNELS 3 Zrotation Yrotation Xrotation
							JOINT RightHand
							{
								OFFSET -3.444170 -0.000000 -0.000000
								CHANNELS 3 Zrotation Yrotation Xrotation
								JOINT RightFingerBase
								{
									OFFSET 0.000000 0.000000 0.000000
									CHANNELS 3 Zrotation Yrotation Xrotation
									JOINT RightHandIndex1
									{
										OFFSET -0.622530 -0.000000 -0.000000
										CHANNELS 3 Zrotation Yrotation Xrotation
										End Site
										{
											OFFSET 0.000000 0.000000 0.000000
										}
									}
								}
								JOINT RThumb
								{
									OFFSET 0.000000 0.000000 0.000000
									CHANNELS 3 Zrotation Yrotation Xrotation
									End Site
									{
										OFFSET 0.000000 0.000000 0.000000
									}
								}
							}
						}
					}
				}
			}
		}
	}
}
}
MOTION
Frames: 15
Frame Time: 0.008333
13.660182 15.670290 2.197150 87.163066 -86.119169 -42.301252 1.210635 -2.411343 -6.520608 -0.379956 -2.746630 -4.310039 -5.260632 -2.971190 1.481184 10.934622 -9.469312 -15.598615 -2.795692 -0.087778 -2.747526 0.000000 0.000000 0.000000 0.676914 10.203708 4.596890 -72.763860 3.376745 -24.418586 -0.542108 -14.726932 -0.034371 35.427364 -8.075180 -2.601624 0.006369 0.057391 -0.000000 0.000000 0.000000 0.000000 0.000000 0.000000 0.000000 13.965644 -6.615956 3.800240 71.410806 7.524480 -30.313748 0.595022 18.587980 -0.048234 -24.131774 14.909983 -3.269360 0.140081 -0.213754 -0.000000 0.000000 0.000000 0.000000 0.000000 0.000000 0.000000 
13.637286 15.623741 2.204101 87.053217 -86.071332 -41.530218 1.225746 -2.437915 -6.634095 -0.373761 -2.778274 -4.320554 -5.255473 -3.005114 1.587398 11.053406 -9.719064 -15.836354 -2.756501 -0.081256 -2.823347 0.000000 0.000000 0.000000 0.531900 10.603858 4.630807 -72.435471 4.176261 -24.941867 -0.534371 -13.935463 -0.032599 35.360509 -7.604718 -2.445007 0.004824 0.054827 -0.000000 0.000000 0.000000 0.000000 0.000000 0.000000 0.000000 14.052201 -6.893092 3.871192 71.266592 6.489063 -31.249839 0.582462 17.566608 -0.046289 -24.190150 14.718597 -3.233972 0.139860 -0.206822 -0.000000 0.000000 0.000000 0.000000 0.000000 0.000000 0.000000 
13.614426 15.576580 2.210743 86.927717 -86.010866 -40.726387 1.231047 -2.464871 -6.753944 -0.369646 -2.809780 -4.333923 -5.249256 -3.038958 1.684183 11.170598 -9.961850 -16.068474 -2.717078 -0.074669 -2.898313 0.000000 0.000000 0.000000 0.395835 10.980406 4.663840 -72.082746 4.970863 -25.467339 -0.526319 -13.211525 -0.030952 35.286623 -7.167362 -2.299290 0.002684 0.052573 -0.000000 0.000000 0.000000 0.000000 0.000000 0.000000 0.000000 14.138657 -7.163771 3.943510 71.094625 5.448630 -32.193018 0.563477 16.606885 -0.044572 -24.259454 14.508767 -3.195883 0.139680 -0.200332 -0.000000 0.000000 0.000000 0.000000 0.000000 0.000000 0.000000 
13.591703 15.528649 2.217123 86.786782 -85.936415 -39.890214 1.226066 -2.492524 -6.878815 -0.367821 -2.841416 -4.350096 -5.242000 -3.073005 1.770657 11.284235 -10.193725 -16.292327 -2.677899 -0.068097 -2.971653 0.000000 0.000000 0.000000 0.268767 11.328907 4.696197 -71.710853 5.759978 -25.990719 -0.517929 -12.555007 -0.029422 35.202837 -6.765838 -2.165175 -0.000024 0.050600 -0.000000 0.000000 0.000000 0.000000 0.000000 0.000000 0.000000 14.223641 -7.424486 4.016858 70.899268 4.406247 -33.134255 0.538704 15.704378 -0.043052 -24.341089 14.296090 -3.158695 0.139536 -0.194294 -0.000000 0.000000 0.000000 0.000000 0.000000 0.000000 0.000000 
13.569123 15.479740 2.223296 86.626929 -85.849434 -39.019576 1.212375 -2.520811 -7.005412 -0.367851 -2.873142 -4.366906 -5.233182 -3.107131 1.852113 11.396954 -10.428292 -16.512764 -2.637564 -0.061313 -3.044836 0.000000 0.000000 0.000000 0.149745 11.669168 4.725845 -71.319895 6.514783 -26.498206 -0.509068 -11.946199 -0.027996 35.109089 -6.412687 -2.046561 -0.003263 0.048861 -0.000000 0.000000 0.000000 0.000000 0.000000 0.000000 0.000000 14.309598 -7.691420 4.088723 70.677187 3.389352 -34.046610 0.509440 14.841615 -0.041674 -24.442989 14.097911 -3.127107 0.139497 -0.188679 -0.000000 0.000000 0.000000 0.000000 0.000000 0.000000 0.000000 
13.546932 15.429594 2.229209 86.448444 -85.746000 -38.116266 1.188103 -2.550669 -7.134493 -0.370491 -2.905801 -4.387784 -5.223601 -3.142362 1.916738 11.497150 -10.628385 -16.713197 -2.600033 -0.054984 -3.112836 0.000000 0.000000 0.000000 0.040681 11.954244 4.757420 -70.924828 7.289168 -26.998243 -0.499687 -11.418915 -0.026677 35.006256 -6.088723 -1.937446 -0.006963 0.047340 -0.000000 0.000000 0.000000 0.000000 0.000000 0.000000 0.000000 14.386074 -7.923262 4.162576 70.448624 2.354149 -34.956619 0.475190 14.037407 -0.040441 -24.551673 13.925020 -3.101818 0.139439 -0.183593 -0.000000 0.000000 0.000000 0.000000 0.000000 0.000000 0.000000 
13.525245 15.377936 2.234871 86.246771 -85.626567 -37.178987 1.154101 -2.582382 -7.263854 -0.375619 -2.939686 -4.412429 -5.213340 -3.178991 1.964007 11.582533 -10.790321 -16.891468 -2.566060 -0.049229 -3.174949 0.000000 0.000000 0.000000 -0.059235 12.180718 4.791199 -70.531330 8.085968 -27.481405 -0.489897 -10.973540 -0.025452 34.897016 -5.791889 -1.837134 -0.011049 0.045990 -0.000000 0.000000 0.000000 0.000000 0.000000 0.000000 0.000000 14.451909 -8.116113 4.238159 70.219024 1.302332 -35.859685 0.436777 13.286417 -0.039325 -24.664437 13.788309 -3.084929 0.139369 -0.179050 -0.000000 0.000000 0.000000 0.000000 0.000000 0.000000 0.000000 
13.504083 15.324617 2.240371 86.013271 -85.497876 -36.204131 1.115375 -2.614701 -7.387311 -0.381660 -2.973650 -4.435607 -5.200578 -3.215624 2.008114 11.661590 -10.952588 -17.064156 -2.531179 -0.043324 -3.236176 0.000000 0.000000 0.000000 -0.150573 12.405302 4.822230 -70.130422 8.830720 -27.922451 -0.479062 -10.556908 -0.024303 34.789347 -5.551022 -1.755222 -0.015439 0.044773 0.000000 0.000000 0.000000 0.000000 0.000000 0.000000 0.000000 14.512827 -8.313258 4.310295 69.976141 0.290940 -36.703317 0.396276 12.557436 -0.038270 -24.797103 13.691008 -3.079239 0.139471 -0.174937 -0.000000 0.000000 0.000000 0.000000 0.000000 0.000000 0.000000 
13.483453 15.269280 2.245745 85.744873 -85.361171 -35.191475 1.073914 -2.647239 -7.504556 -0.388548 -3.007452 -4.459877 -5.186418 -3.252148 2.039687 11.725884 -11.088834 -17.218883 -2.498753 -0.037826 -3.292713 0.000000 0.000000 0.000000 -0.234240 12.588342 4.853926 -69.734376 9.572533 -28.324424 -0.467290 -10.198203 -0.023221 34.686347 -5.344852 -1.685012 -0.020045 0.043657 -0.000000 0.000000 0.000000 0.000000 0.000000 0.000000 0.000000 14.562884 -8.484261 4.382380 69.734964 -0.714139 -37.512918 0.353511 11.865383 -0.037292 -24.933461 13.631631 -3.082349 0.139658 -0.171326 -0.000000 0.000000 0.000000 0.000000 0.000000 0.000000 0.000000 
13.463424 15.211603 2.250969 85.442677 -85.219451 -34.145125 1.031666 -2.679711 -7.613680 -0.395582 -3.040847 -4.483509 -5.169866 -3.288240 2.063671 11.776589 -11.208580 -17.360800 -2.467513 -0.032529 -3.346084 0.000000 0.000000 0.000000 -0.309406 12.750876 4.885298 -69.342190 10.283765 -28.680124 -0.453997 -9.872355 -0.022208 34.594898 -5.182084 -1.629302 -0.024782 0.042639 0.000000 0.000000 0.000000 0.000000 0.000000 0.000000 0.000000 14.602073 -8.639563 4.452565 69.496145 -1.697017 -38.273274 0.309541 11.202495 -0.036374 -25.072545 13.602921 -3.092858 0.139998 -0.168178 -0.000000 0.000000 0.000000 0.000000 0.000000 0.000000 0.000000 
13.444002 15.151370 2.256143 85.101274 -85.080019 -33.065387 0.993740 -2.710340 -7.711448 -0.401473 -3.072270 -4.504394 -5.150335 -3.322223 2.085262 11.816952 -11.326684 -17.496479 -2.435737 -0.027154 -3.398240 0.000000 0.000000 0.000000 -0.375641 12.913893 4.914774 -68.951156 10.936317 -28.985042 -0.438567 -9.554415 -0.021256 34.520081 -5.071919 -1.591193 -0.029571 0.041719 0.000000 0.000000 0.000000 0.000000 0.000000 0.000000 0.000000 14.632301 -8.794590 4.519318 69.256510 -2.638731 -38.965572 0.265495 10.562512 -0.035512 -25.214390 13.592139 -3.107766 0.140563 -0.165424 -0.000000 0.000000 0.000000 0.000000 0.000000 0.000000 0.000000 
13.425154 15.088197 2.261201 84.732679 -84.941615 -31.964797 0.959183 -2.739732 -7.801237 -0.406779 -3.102413 -4.526101 -5.129277 -3.354962 2.094635 11.839161 -11.413825 -17.613037 -2.407294 -0.022337 -3.445137 0.000000 0.000000 0.000000 -0.435414 13.034732 4.946156 -68.573698 11.587751 -29.253622 -0.421500 -9.277301 -0.020366 34.461055 -4.986071 -1.561485 -0.034358 0.040881 0.000000 0.000000 0.000000 0.000000 0.000000 0.000000 0.000000 14.649027 -8.915910 4.586382 69.033001 -3.578284 -39.634806 0.220888 9.962678 -0.034728 -25.335228 13.592693 -3.122774 0.141222 -0.163142 -0.000000 0.000000 0.000000 0.000000 0.000000 0.000000 0.000000 
13.406854 15.021840 2.266135 84.343159 -84.808204 -30.852491 0.930239 -2.767140 -7.883294 -0.410932 -3.130692 -4.548113 -5.106731 -3.385839 2.094193 11.845392 -11.475873 -17.713407 -2.381638 -0.017992 -3.487561 0.000000 0.000000 0.000000 -0.489898 13.121902 4.978875 -68.209316 12.229696 -29.491765 -0.402665 -9.030268 -0.019540 34.417661 -4.922633 -1.539678 -0.039104 0.040133 0.000000 0.000000 0.000000 0.000000 0.000000 0.000000 0.000000 14.654160 -9.009434 4.653193 68.825463 -4.506990 -40.287377 0.176145 9.399631 -0.034017 -25.427969 13.597602 -3.135281 0.141968 -0.161304 -0.000000 0.000000 0.000000 0.000000 0.000000 0.000000 0.000000 
13.389035 14.952219 2.271064 83.922356 -84.690108 -29.723010 0.913228 -2.789857 -7.954030 -0.412387 -3.154691 -4.567332 -5.082391 -3.412280 2.092412 11.843942 -11.539261 -17.809110 -2.355769 -0.013623 -3.528997 0.000000 0.000000 0.000000 -0.539752 13.210263 5.009930 -67.850237 12.816327 -29.705363 -0.381128 -8.779076 -0.018777 34.388746 -4.896583 -1.530172 -0.043760 0.039500 0.000000 0.000000 0.000000 0.000000 0.000000 0.000000 0.000000 14.654097 -9.103191 4.717178 68.622814 -5.393131 -40.894184 0.132279 8.867780 -0.033378 -25.500628 13.589487 -3.142288 0.142891 -0.159786 -0.000000 0.000000 0.000000 0.000000 0.000000 0.000000 0.000000 
13.371534 14.879080 2.275973 83.483619 -84.588534 -28.588697 0.907127 -2.808049 -8.014514 -0.411259 -3.174538 -4.583038 -5.056111 -3.434377 2.092886 11.838612 -11.609850 -17.904273 -2.328901 -0.009083 -3.570685 0.000000 0.000000 0.000000 -0.583448 13.316954 5.038930 -67.493059 13.327758 -29.909301 -0.356221 -8.506264 -0.018095 34.370921 -4.911775 -1.534167 -0.048315 0.039033 0.000000 0.000000 0.000000 0.000000 0.000000 0.000000 0.000000 14.652071 -9.203554 4.776858 68.423024 -6.230302 -41.446536 0.089815 8.373705 -0.032815 -25.554874 13.554624 -3.140995 0.144026 -0.158506 -0.000000 0.000000 0.000000 0.000000 0.000000 0.000000 0.000000 
